# xmcd CD database file
#
# Track frame offsets:
#	150
#	10282
#	21547
#	35947
#	49360
#	63375
#	80472
#	98730
#	110220
#	128342
#	148315
#	163610
#	179945
#	198582
#	212132
#	230955
#	242687
#	256510
#	271382
#	286125
#	299310
#	312950
#
# Disc length: 4344 seconds
#
# Revision: 0
# Processed by: cddbd v1.5.2PL0 Copyright (c) Steve Scherf et al.
# Submitted via: CDex 1.70beta2
#
DISCID=5b10f616
DTITLE=Jones Country - Jones Country JCY-011
DYEAR=0000
DGENRE=Country
TTITLE0=Mel TIllis/I Ain't Never
TTITLE1=Mel TIllis/I Believe In You
TTITLE2=Mel TIllis/Lying Time Again
TTITLE3=Mel TIllis/Memory Maker
TTITLE4=Conway Twitty/Baby's Gone
TTITLE5=Conway Twitty/Don't Take It Away
TTITLE6=Conway Twitty/Clown
TTITLE7=Conway Twitty/This Time I've Hurt Her More Than She Loves Me
TTITLE8=Conway Twitty/We Did But Now You Don't
TTITLE9=Conway Twitty/Don't Cry Joni
TTITLE10=Steve Wariner/I Got Dreams
TTITLE11=Steve Wariner/Kansas City Lights
TTITLE12=Steve Wariner/You Can Dream Of Me
TTITLE13=Steve Wariner/Your Memory
TTITLE14=Gene Watson/Farewell Party
TTITLE15=Gene Watson/Should I Come Home (Or Should I Go Crazy)
TTITLE16=Don Williams/I Wouldn't Want To Live If You Didn't Love Me
TTITLE17=Don Williams/If Hollywood Don't Need You
TTITLE18=Don Williams/Listen To The Radio
TTITLE19=Don Williams/Mistakes
TTITLE20=Don Williams/Say It Again
TTITLE21=Don Williams/She Never Knew Me
EXTD=YEAR: 0000
EXTT0=
EXTT1=
EXTT2=
EXTT3=
EXTT4=
EXTT5=
EXTT6=
EXTT7=
EXTT8=
EXTT9=
EXTT10=
EXTT11=
EXTT12=
EXTT13=
EXTT14=
EXTT15=
EXTT16=
EXTT17=
EXTT18=
EXTT19=
EXTT20=
EXTT21=
PLAYORDER=
